<?xml version="1.0" encoding="UTF-8" standalone="no"?>
<svg
   viewBox="0 0 32 32"
   fill="none"
   x="0px"
   y="0px"
   version="1.1"
   id="svg10"
   sodipodi:docname="icon.svg"
   width="32"
   height="32"
   inkscape:version="1.1.1 (3bf5ae0d25, 2021-09-20)"
   xmlns:inkscape="http://www.inkscape.org/namespaces/inkscape"
   xmlns:sodipodi="http://sodipodi.sourceforge.net/DTD/sodipodi-0.dtd"
   xmlns="http://www.w3.org/2000/svg"
   xmlns:svg="http://www.w3.org/2000/svg">
  <defs
     id="defs14" />
  <sodipodi:namedview
     id="namedview12"
     pagecolor="#ffffff"
     bordercolor="#666666"
     borderopacity="1.0"
     inkscape:pageshadow="2"
     inkscape:pageopacity="0.0"
     inkscape:pagecheckerboard="0"
     showgrid="false"
     inkscape:zoom="11.647393"
     inkscape:cx="32.067263"
     inkscape:cy="30.221356"
     inkscape:window-width="1920"
     inkscape:window-height="1011"
     inkscape:window-x="0"
     inkscape:window-y="0"
     inkscape:window-maximized="1"
     inkscape:current-layer="g1332" />
  <g
     id="g1332">
    <path
       fill-rule="evenodd"
       clip-rule="evenodd"
       d="M 4,26.375 C 4,26.0298 4.27982,25.75 4.625,25.75 h 22.75 C 27.7202,25.75 28,26.0298 28,26.375 28,26.7202 27.7202,27 27.375,27 H 4.625 C 4.27982,27 4,26.7202 4,26.375 Z"
       fill="#000000"
       id="path2"
       style="fill:#34596b;fill-opacity:1" />
    <path
       fill-rule="evenodd"
       clip-rule="evenodd"
       d="m 15.9884,4.37511 c 0.2996,-0.00556 0.561,0.20225 0.6231,0.49536 l 2.2761,10.74383 1.1303,-1.835 c 0.1166,-0.1892 0.3249,-0.3023 0.5472,-0.297 0.2222,0.0054 0.4249,0.1284 0.5322,0.323 l 2.8384,5.1466 2.012,-2.1104 c 0.1179,-0.1238 0.2814,-0.1938 0.4523,-0.1938 0.171,0 0.3345,0.07 0.4524,0.1938 l 2.6,2.7272 c 0.2382,0.2499 0.2287,0.6455 -0.0211,0.8837 -0.2498,0.2382 -0.6454,0.2287 -0.8836,-0.0211 L 26.4,18.1785 24.2524,20.4313 c -0.1374,0.1441 -0.3352,0.2141 -0.5326,0.1885 -0.1974,-0.0255 -0.3709,-0.1436 -0.467,-0.318 l -2.7326,-4.9546 -1.388,2.2533 c -0.1341,0.2176 -0.3871,0.3317 -0.6389,0.288 -0.2518,-0.0436 -0.4517,-0.2362 -0.5047,-0.4862 L 16.0614,8.3054 14.0159,20.1067 c -0.0481,0.2774 -0.2756,0.4883 -0.5557,0.5154 -0.2802,0.0271 -0.5439,-0.1364 -0.6441,-0.3994 L 10.6597,14.5679 8.72753,17.608 C 8.56039,17.8709 8.22508,17.9706 7.94142,17.8417 L 5.94701,16.9352 3.58403,23.1318 C 3.46104,23.4543 3.09988,23.6161 2.77736,23.4931 2.45483,23.3701 2.29308,23.0089 2.41607,22.6864 l 2.6,-6.8182 c 0.06147,-0.1612 0.18683,-0.2898 0.3464,-0.3554 0.15957,-0.0656 0.33915,-0.0623 0.4962,0.0091 l 2.10535,0.957 2.30858,-3.6323 c 0.1268,-0.1995 0.3552,-0.3104 0.5904,-0.2866 0.2352,0.0238 0.4368,0.1783 0.521,0.3991 l 1.789,4.6913 2.2112,-12.75714 c 0.0512,-0.29522 0.3047,-0.51259 0.6042,-0.51815 z"
       fill="#000000"
       id="path4"
       style="fill:#006f66;fill-opacity:1" />
  </g>
</svg>
